<svg width="296" height="222" viewBox="0 0 296 222" fill="none" xmlns="http://www.w3.org/2000/svg">
<path d="M225.426 37.2701H74.5772C71.7981 37.2701 69.5452 39.523 69.5452 42.3021V133.729C69.5452 136.508 71.7981 138.761 74.5772 138.761H225.426C228.205 138.761 230.458 136.508 230.458 133.729V42.3021C230.458 39.523 228.205 37.2701 225.426 37.2701Z" stroke="#D1D5DB" stroke-width="0.6697" stroke-linecap="round" stroke-linejoin="round"/>
<path d="M220.657 42.0023H79.3502C76.5711 42.0023 74.3182 44.2553 74.3182 47.0344V128.989C74.3182 131.768 76.5711 134.021 79.3502 134.021H220.657C223.436 134.021 225.689 131.768 225.689 128.989V47.0344C225.689 44.2553 223.436 42.0023 220.657 42.0023Z" stroke="#D1D5DB" stroke-width="0.6697" stroke-linecap="round" stroke-linejoin="round"/>
<path d="M74.5069 108.821C69.19 109.461 68.5351 105.972 66.6 101.01C64.6649 96.0483 65.0053 91.39 63.6918 83.7606C62.1563 74.8806 72.9418 74.6808 75.1618 87.1313C75.2543 87.6345 75.3542 88.2191 75.4615 88.8592C75.776 90.6611 76.1719 92.9292 76.7417 95.1788C76.886 95.7449 77.0414 96.311 77.2042 96.8697C78.2772 100.455 79.8349 108.177 74.5069 108.821Z" fill="#B25E47"/>
<path d="M76.7565 95.1788C69.6007 97.3988 68.5388 91.5454 68.6165 89.1515L75.4689 88.8592C75.7908 90.65 76.1867 92.9181 76.7565 95.1788Z" fill="#914839"/>
<path d="M102.49 132.201C102.212 132.466 101.918 132.713 101.609 132.941C101.376 133.126 101.095 133.337 100.769 133.555L100.492 133.744L100.174 133.947C99.726 134.229 99.2192 134.525 98.6493 134.813C98.3829 134.95 98.1017 135.091 97.8058 135.22C97.654 135.29 97.4987 135.361 97.3359 135.427L96.8512 135.627C96.6995 135.686 96.5478 135.746 96.3887 135.801C96.2296 135.857 96.0187 135.942 95.8041 136.008C95.5895 136.075 95.434 136.13 95.2491 136.186C95.064 136.241 94.8791 136.301 94.6756 136.352L94.1576 136.489L94.017 136.523L93.4842 136.641C93.0587 136.737 92.6221 136.815 92.167 136.881C91.982 136.915 91.797 136.941 91.6009 136.963C91.5306 136.963 91.4603 136.981 91.3863 136.985C91.1902 137.011 90.9941 137.029 90.7943 137.048V137.085C90.8979 138.106 92.0227 157.435 92.3113 162.515L92.3372 162.966C92.3372 163.07 92.3372 163.163 92.3372 163.244C78.1218 162.874 63.9582 162.737 50.3125 162.774C50.0313 157.69 49.5245 148.296 49.0324 138.724C48.3479 125.312 47.6967 111.57 47.7707 108.898V108.858C47.9261 103.715 47.2045 99.863 51.5964 98.1647C53.1283 97.5727 55.2965 97.2397 58.3157 97.2101H58.8965H59.5367H60.21C60.4394 97.2101 60.6541 97.2101 60.8613 97.1879H61.3164L61.7493 97.1657H62.1193L62.7186 97.1324L63.1404 97.1028C63.3624 97.1028 63.5622 97.0732 63.7472 97.0584H63.862L64.0729 97.0399L64.3725 97.0066H64.4761C64.6796 96.9807 64.8461 96.9548 64.9683 96.9326C65.0903 96.9104 65.1459 96.8993 65.2125 96.8845C65.284 96.871 65.3536 96.8486 65.4197 96.8179C66.389 99.4967 69.0901 104.395 73.6189 103.778C78.1477 103.16 77.7666 98.1129 76.8675 95.904L76.9525 95.978L77.0821 96.0816L77.367 96.2888C77.4077 96.3184 77.4521 96.3517 77.5002 96.3813L77.6518 96.4812L77.7999 96.5737L78.0034 96.6958C78.1773 96.792 78.3734 96.8845 78.5547 96.9659L78.7471 97.0436C78.8766 97.088 79.0061 97.1213 79.1171 97.1509C79.2547 97.1786 79.3948 97.1922 79.5352 97.1916C79.5795 97.1956 79.624 97.1956 79.6684 97.1916C79.7165 97.1916 79.7609 97.1916 79.8053 97.1694C80.512 96.9918 82.4989 96.644 85.2184 97.7096C86.9537 98.3941 88.9887 99.6558 91.1828 101.913C92.6035 103.469 93.8059 105.212 94.757 107.093C98.6679 114.289 101.572 125.249 102.49 132.201Z" fill="#1F2937"/>
<path d="M94.7829 107.03C92.4044 106.691 89.9807 107.149 87.8898 108.332C86.247 109.33 84.9543 110.813 84.1898 112.576C80.3714 120.997 70.3666 124.161 63.6807 114.841C62.7515 113.521 61.6753 112.31 60.4728 111.233C56.8801 108.081 52.7028 107.211 47.7448 108.935V108.895C47.9002 103.752 47.1787 99.9 51.5706 98.2017C53.1024 97.6097 55.2706 97.2767 58.2898 97.2471C64.6908 97.1805 65.4049 96.7698 65.4049 96.7698C66.3743 99.4486 69.0753 104.347 73.6041 103.73C78.1329 103.112 77.7518 98.0648 76.8527 95.8559C76.9526 95.941 78.7027 97.3951 79.8127 97.1176C80.5194 96.94 82.5063 96.5922 85.2258 97.6578C86.9611 98.3423 88.9961 99.604 91.1902 101.861C92.6166 103.413 93.8253 105.152 94.7829 107.03Z" fill="#374151"/>
<path d="M101.273 163.54C98.2905 163.444 95.3096 163.357 92.3298 163.281V163.004L92.3039 162.552L90.7869 137.122V137.085L101.273 129.944C101.413 130.876 101.532 131.89 101.643 132.963C102.59 143.93 101.436 161.172 101.273 163.54Z" fill="#B25E47"/>
<path d="M102.49 132.201C102.49 132.201 98.3053 136.423 90.7721 137.078C90.3577 124.931 89.1922 115.314 87.8972 108.332C87.0055 103.504 86.0472 99.9296 85.2517 97.6578C86.987 98.3423 89.022 99.604 91.2161 101.861C92.6368 103.418 93.8392 105.16 94.7903 107.041C98.6679 114.289 101.572 125.249 102.49 132.201Z" fill="#FED81D"/>
<path d="M94.7829 107.03C92.4044 106.691 89.9807 107.149 87.8898 108.332C86.9981 103.504 86.0398 99.9296 85.2443 97.6578C86.9796 98.3423 89.0146 99.604 91.2087 101.861C92.6286 103.414 93.831 105.153 94.7829 107.03Z" fill="#FFE05C"/>
<path d="M90.7647 137.078C90.3503 124.931 89.1848 115.314 87.8898 108.332" stroke="#F7AD2B" stroke-width="0.2516" stroke-linecap="round" stroke-linejoin="round"/>
<path d="M65.1903 95.4378C62.9703 96.311 62.9703 97.2878 62.9703 98.3497C62.9703 99.4116 64.9609 105.206 68.8533 109.32C69.6118 110.123 70.7403 105.169 71.854 104.88C72.9677 104.592 73.9667 105.102 74.4847 105.028C75.0027 104.954 76.3754 103.593 77.2671 104.211C78.1588 104.828 80.0458 107.911 80.4158 107.992C80.7858 108.073 80.8228 100.692 79.9718 98.0981C79.7486 97.3651 79.33 96.7068 78.7609 96.1938C78.1918 95.6808 77.4938 95.3324 76.7417 95.1862C76.7417 95.1862 77.3559 100.544 75.5614 102.135C71.8318 105.45 67.9949 101.273 65.1903 95.4378Z" fill="white"/>
<path d="M64.1358 80.7599C62.8371 80.2789 60.8465 81.4999 61.1166 83.5238C61.3867 85.5477 64.38 86.21 65.86 85.0371C65.1187 83.6843 64.54 82.2486 64.1358 80.7599Z" fill="#B25E47"/>
<path d="M62.1378 83.657C62.0268 82.7875 63.0776 81.4148 64.7278 82.7172" stroke="#934735" stroke-width="0.2516" stroke-linecap="round" stroke-linejoin="round"/>
<path d="M64.0618 84.2268C62.3413 84.1824 62.8482 82.3287 64.4022 82.4915" stroke="#934735" stroke-width="0.2516" stroke-linecap="round" stroke-linejoin="round"/>
<path d="M77.5853 82.8319L76.6529 83.102L67.5176 85.7438C67.5176 85.7438 67.2734 85.507 66.9034 85.0963C65.6967 83.7681 64.7358 82.2359 64.0655 80.5712C63.8643 80.0336 63.7241 79.4751 63.6474 78.9062C63.196 75.3653 66.8775 68.7312 73.0047 71.7948C74.9842 73.6818 76.109 77.034 76.3976 78.0182L76.4938 78.3512C76.8453 79.6647 77.5853 82.8319 77.5853 82.8319Z" fill="#B25E47"/>
<path d="M71.0399 81.5776C71.0399 82.5226 70.6645 83.4289 69.9963 84.0971C69.3281 84.7653 68.4218 85.1407 67.4768 85.1407C67.2799 85.141 67.0832 85.1262 66.8885 85.0963C65.6819 83.768 64.7209 82.2358 64.0506 80.5712C64.2923 79.7476 64.8228 79.0388 65.5448 78.5748C66.2668 78.1108 67.132 77.9227 67.9815 78.0451C68.831 78.1674 69.6079 78.5919 70.1697 79.2408C70.7315 79.8896 71.0404 80.7193 71.0399 81.5776Z" fill="#A0503D"/>
<path d="M77.5853 82.8319L76.6529 83.102C76.2661 82.8439 75.9464 82.4973 75.7203 82.091C75.4942 81.6847 75.3681 81.2303 75.3526 80.7656C75.337 80.3009 75.4324 79.8391 75.6309 79.4186C75.8293 78.9981 76.1251 78.6309 76.4938 78.3475C76.8453 79.6647 77.5853 82.8319 77.5853 82.8319Z" fill="#A0503D"/>
<path d="M70.892 78.0071C70.8912 78.1011 70.9185 78.1931 70.9702 78.2716C71.022 78.35 71.0959 78.4113 71.1826 78.4476C71.2693 78.4839 71.3648 78.4936 71.457 78.4755C71.5492 78.4573 71.634 78.4121 71.7004 78.3457C71.7669 78.2792 71.8121 78.1945 71.8302 78.1023C71.8484 78.01 71.8387 77.9145 71.8024 77.8278C71.7661 77.7411 71.7048 77.6672 71.6264 77.6155C71.5479 77.5637 71.4558 77.5365 71.3618 77.5372C71.3001 77.5372 71.239 77.5493 71.182 77.573C71.125 77.5966 71.0732 77.6312 71.0296 77.6748C70.9859 77.7185 70.9513 77.7703 70.9277 77.8273C70.9041 77.8843 70.892 77.9454 70.892 78.0071Z" fill="#683F1D"/>
<path d="M74.3034 77.5372C74.3034 77.631 74.3312 77.7227 74.3834 77.8007C74.4356 77.8786 74.5098 77.9393 74.5966 77.9751C74.6833 78.0108 74.7788 78.02 74.8707 78.0014C74.9627 77.9828 75.0471 77.9373 75.1132 77.8707C75.1792 77.8041 75.224 77.7194 75.2419 77.6273C75.2598 77.5352 75.2499 77.4398 75.2134 77.3534C75.177 77.2669 75.1157 77.1932 75.0374 77.1416C74.959 77.09 74.8671 77.0628 74.7733 77.0636C74.7112 77.0636 74.6498 77.0759 74.5926 77.0997C74.5353 77.1235 74.4834 77.1585 74.4397 77.2025C74.396 77.2465 74.3615 77.2988 74.3381 77.3562C74.3147 77.4137 74.3029 77.4752 74.3034 77.5372Z" fill="#683F1D"/>
<path d="M78.3586 88.5521C76.3643 93.6655 71.3989 92.1818 69.1826 90.7462C66.9663 89.3106 65.8526 85.6254 64.2838 83.1057C62.2303 79.8238 62.2969 76.6011 63.3884 74.2257C64.0719 72.6181 65.3574 71.3418 66.97 70.67C70.4406 69.4009 73.0084 71.78 73.0084 71.78C72.9381 74 68.6942 73.408 67.8913 73.1675C65.9118 72.5866 65.1089 74.703 64.8758 76.3754C64.602 78.3179 64.898 80.3381 65.9599 81.8218C67.0218 83.3055 67.8099 83.6718 68.3871 82.9318C68.9643 82.1918 70.0632 81.3519 72.8678 80.9005C75.6724 80.4491 76.96 81.7885 76.96 81.7885C76.96 81.2853 76.4272 78.2143 76.3976 78.0256C77.415 79.8249 78.1524 81.7688 78.5843 83.7902C78.8914 85.3775 78.9321 87.0684 78.3586 88.5521Z" fill="#FFEACC"/>
<path d="M78.3586 88.5521C76.3643 93.6655 71.3989 92.1818 69.1826 90.7462C66.9663 89.3106 65.8526 85.6254 64.2838 83.1057C62.2303 79.8238 62.2969 76.6011 63.3884 74.2257C63.3144 80.549 67.7137 87.5457 70.4184 88.8333C72.9566 90.0469 77.5298 89.6436 78.5769 83.7939C78.8914 85.3775 78.9321 87.0684 78.3586 88.5521Z" fill="#EDD6B7"/>
<path d="M71.3619 82.3768C72.498 82.4457 73.6372 82.4457 74.7733 82.3768C74.7733 82.3768 74.3182 83.8827 72.9233 83.7532C72.546 83.7333 72.1865 83.5866 71.903 83.3367C71.6196 83.0869 71.4289 82.7486 71.3619 82.3768Z" fill="white" stroke="#934735" stroke-width="0.2516" stroke-linecap="round" stroke-linejoin="round"/>
<path d="M70.8883 74.5735C71.1177 75.48 68.8348 77.0821 68.265 76.4235C67.6952 75.7649 70.5405 73.2119 70.8883 74.5735Z" fill="#FFEACC"/>
<path d="M72.9381 74.1776C72.8678 74.8288 75.6132 75.3764 75.6502 74.8843C75.6872 74.3922 73.0676 73.001 72.9381 74.1776Z" fill="#FFEACC"/>
<path d="M72.4756 75.2506C72.2092 76.1867 72.039 77.404 72.9381 77.8406C73.8372 78.2772 75.0545 78.107 75.1766 79.8904" stroke="#934735" stroke-width="0.2516" stroke-linecap="round" stroke-linejoin="round"/>
<path d="M39.59 136.275C39.0757 142.124 39.0609 154.368 45.14 157.476C55.1559 162.593 57.276 149.362 56.8357 136.275H39.59Z" fill="#B25E47"/>
<path d="M60.5727 115.81C60.384 123.547 57.0466 138.421 57.0466 138.421C53.9423 138.676 51.2894 138.791 49.0213 138.791C39.4679 138.791 36.8113 136.911 36.8113 136.911C36.8113 136.911 38.7464 122 41.4807 112.225C41.7545 111.237 42.0394 110.301 42.328 109.439C44.8477 101.968 48.0297 98.8677 51.578 98.2313C52.5125 98.0702 53.4667 98.0589 54.4048 98.198C58.3342 98.7308 60.0621 104.858 60.4802 111.263C60.5838 112.761 60.6097 114.308 60.5727 115.81Z" fill="#FED81D"/>
<path d="M60.4876 111.233C56.8949 108.081 52.7176 107.211 47.7596 108.935C45.5301 109.744 43.4156 110.84 41.4696 112.195C41.7434 111.207 42.0283 110.271 42.3169 109.409C44.8366 101.939 48.0186 98.8381 51.5669 98.2017C52.5014 98.0406 53.4556 98.0293 54.3937 98.1684C58.3416 98.7012 60.0695 104.821 60.4876 111.233Z" fill="#FFE05C"/>
<path d="M60.5727 115.81C60.384 123.547 57.0466 138.421 57.0466 138.421" stroke="#F7AD2B" stroke-width="0.2516" stroke-linecap="round" stroke-linejoin="round"/>
<path d="M96.1037 123.58C96.1037 123.58 97.2137 124.394 96.0334 126.621C96.0334 126.621 97.2656 127.757 95.6154 129.663C95.84 130.103 95.9 130.608 95.7847 131.089C95.6694 131.569 95.3862 131.992 94.9864 132.282C93.3193 133.741 91.5485 135.076 89.6879 136.278C88.8221 136.811 87.6307 137.592 85.7511 138.924C85.0111 139.449 84.1527 140.064 83.1611 140.774C80.9411 142.391 78.0477 144.541 74.2367 147.434C58.7892 159.148 49.5652 160.754 44.2002 156.895C39.9378 153.831 45.3101 140.015 61.764 134.488C70.2333 131.639 75.4319 130.148 78.6138 129.252C79.9051 128.882 80.8671 128.623 81.5738 128.409C82.5136 128.12 83.0205 127.92 83.298 127.687C84.2896 126.836 84.7485 125.837 85.2295 124.638C85.7104 123.439 86.8426 118.948 87.1238 117.719C87.405 116.491 89.5325 115.78 89.1773 122.725C89.1773 122.725 95.2639 120.742 96.3665 120.457C97.4691 120.172 97.9056 122.588 96.1037 123.58Z" fill="#B25E47"/>
<path d="M85.7511 138.924C85.0111 139.449 84.1527 140.064 83.1611 140.774C81.7699 139.12 78.8099 134.95 78.6212 129.256C79.9125 128.886 80.8745 128.627 81.5812 128.412C81.7699 131.287 83.4571 136.334 85.7511 138.924Z" fill="#683F1D"/>
<path d="M81.1372 137.078C82.6841 137.078 83.9381 135.824 83.9381 134.277C83.9381 132.73 82.6841 131.476 81.1372 131.476C79.5903 131.476 78.3363 132.73 78.3363 134.277C78.3363 135.824 79.5903 137.078 81.1372 137.078Z" fill="white" stroke="#683F1D" stroke-width="0.333" stroke-linecap="round" stroke-linejoin="round"/>
<path d="M85.2443 124.642C85.7216 123.439 86.8575 118.951 87.1387 117.723C87.4199 116.495 89.5474 115.784 89.1922 122.729C89.1922 122.729 95.2787 120.746 96.3813 120.461C97.4839 120.176 97.9057 122.588 96.1038 123.58C96.1038 123.58 97.2138 124.394 96.0335 126.621C96.0335 126.621 97.2656 127.757 95.6154 129.663C95.84 130.103 95.9 130.608 95.7847 131.089C95.6694 131.569 95.3863 131.992 94.9864 132.282" stroke="#934735" stroke-width="0.2516" stroke-linecap="round" stroke-linejoin="round"/>
<path d="M96.1038 123.58C94.9938 124.091 92.7368 125.019 92.7368 125.019" stroke="#934735" stroke-width="0.2516" stroke-linecap="round" stroke-linejoin="round"/>
<path d="M96.0335 126.621C95.3601 127.062 93.7876 127.85 93.7876 127.85" stroke="#934735" stroke-width="0.2516" stroke-linecap="round" stroke-linejoin="round"/>
<path d="M95.6154 129.663C95.2932 129.85 94.9566 130.01 94.6089 130.144" stroke="#934735" stroke-width="0.2516" stroke-linecap="round" stroke-linejoin="round"/>
<path d="M89.1922 122.729C88.1599 123.032 87.3422 123.34 87.3422 123.34" stroke="#934735" stroke-width="0.2516" stroke-linecap="round" stroke-linejoin="round"/>
<path d="M161.712 109.45C161.67 110.216 161.587 110.979 161.464 111.736C160.506 117.971 157.061 126.929 153.239 132.401C152.474 133.529 151.591 134.572 150.605 135.513C147.6 138.276 142.816 138.798 139.475 136.863C138.467 136.282 137.607 135.473 136.965 134.502C136.323 133.531 135.915 132.424 135.775 131.269C135.63 130.267 135.618 129.25 135.742 128.246C136.382 122.581 140.241 112.872 144.899 105.868C145.428 105.062 145.976 104.288 146.527 103.567C149.158 100.118 151.944 97.7133 154.49 97.4543C155.016 97.3926 155.549 97.434 156.059 97.5764C160.277 98.79 162.093 102.09 161.712 109.45Z" fill="#FED81D"/>
<path d="M153.994 112.85C152.715 117.247 152.202 121.832 152.477 126.403C152.624 128.421 152.879 130.429 153.239 132.419C152.474 133.547 151.591 134.59 150.605 135.531C147.6 138.295 142.816 138.817 139.475 136.882C138.467 136.3 137.607 135.492 136.965 134.521C136.323 133.55 135.915 132.443 135.775 131.287C138.735 134.462 141.843 135.146 144.285 134.343C147.83 133.204 150.054 128.989 148.688 124.679C146.287 117.101 151.704 112.769 154.29 111.507C154.223 111.929 154.12 112.376 153.994 112.85Z" fill="#FCC71F"/>
<path d="M161.712 109.45C161.67 110.216 161.587 110.979 161.464 111.736C161.021 111.079 160.656 110.373 160.377 109.631C159.067 106.134 156.706 104.166 154.087 103.311C151.611 102.543 148.949 102.633 146.531 103.567C149.162 100.118 151.948 97.7133 154.493 97.4543C155.019 97.3926 155.552 97.434 156.062 97.5764C160.277 98.79 162.093 102.09 161.712 109.45Z" fill="#FFE05C"/>
<path d="M191.268 171.125C181.396 169.456 171.543 168.121 162.108 167.222C159.326 166.96 156.515 166.713 153.676 166.482C154.209 160.055 155.407 149.506 157.613 146.942C157.729 146.78 157.88 146.644 158.053 146.545C158.227 146.446 158.42 146.386 158.619 146.368C159.87 146.346 163 146.243 166.722 146.106C174.984 145.795 186.162 145.332 186.162 145.332C186.321 145.954 186.48 146.572 186.635 147.182C186.635 147.208 186.635 147.238 186.661 147.267C188.618 155.133 190.156 163.097 191.268 171.125Z" fill="#374151"/>
<path d="M182.199 148.511C183.357 151.101 186.454 154.138 187.501 154.83" stroke="white" stroke-width="0.333" stroke-miterlimit="10"/>
<path d="M171.761 103.441C166.996 104.022 165.967 100.203 165.938 94.7459C165.938 93.462 165.982 92.0856 166.052 90.65C166.091 89.8078 166.181 88.9688 166.322 88.1377C167.947 78.8396 175.643 79.9644 176.039 85.4441C176.19 87.5235 177.655 102.723 171.761 103.441Z" fill="#B25E47"/>
<path d="M171.65 89.0146C171.395 92.685 168.757 94.5646 165.941 94.7459C165.941 93.462 165.986 92.0856 166.056 90.65C166.094 89.8078 166.185 88.9688 166.326 88.1377C167.876 87.4754 171.85 86.0546 171.65 89.0146Z" fill="#914839"/>
<path d="M190.11 125.171C189.858 126.01 189.659 126.864 189.514 127.728C189.473 127.965 189.436 128.201 189.399 128.434C187.938 137.54 187.757 145.987 187.657 146.864C187.557 147.741 179.402 147.438 173.334 147.142C170.97 147.023 167.913 147.057 165.031 147.079C160.517 147.112 156.429 147.123 156.085 146.483C155.866 146.069 155.282 143.645 154.645 140.533C154.545 140.049 154.445 139.553 154.342 139.053C154.29 138.802 154.242 138.543 154.194 138.284C154.146 138.025 154.079 137.688 154.024 137.392C153.968 137.096 153.902 136.756 153.842 136.434C153.713 135.723 153.583 135.006 153.472 134.292C153.361 133.577 153.236 132.878 153.128 132.19C152.786 130.196 152.552 128.185 152.425 126.166C152.199 121.592 152.761 117.012 154.087 112.628C154.12 112.513 154.153 112.402 154.179 112.291C154.231 112.099 154.279 111.921 154.323 111.718L154.39 111.418C154.412 111.318 154.431 111.218 154.449 111.118C154.468 111.019 154.49 110.919 154.505 110.822C154.519 110.726 154.538 110.623 154.553 110.523C154.586 110.33 154.612 110.134 154.638 109.946C154.69 109.472 154.73 109.006 154.749 108.551C154.749 108.488 154.749 108.425 154.749 108.366C154.749 108.044 154.749 107.726 154.749 107.411C154.715 105.966 154.553 104.528 154.264 103.112C153.798 100.696 153.173 98.8789 153.328 98.0427C153.402 97.632 153.828 97.384 154.575 97.2767C154.627 97.2767 154.682 97.2767 154.73 97.2582C156.58 97.0436 160.11 97.5653 164.928 98.5606C165.025 97.4796 165.197 96.4065 165.442 95.3491C165.489 95.1841 165.59 95.0397 165.729 94.9386C165.868 94.8374 166.036 94.7853 166.208 94.7903C166.733 94.7422 167.444 94.9346 168.124 94.9975C169.282 95.1048 173.223 94.3871 175.251 93.3178C175.658 93.0798 176.108 92.9239 176.575 92.8589C177.548 92.7664 177.885 93.5323 178.011 94.5794C178.011 94.6238 178.011 94.6719 178.011 94.7163C178.011 94.7607 178.011 94.8126 178.011 94.8644C178.011 94.9162 178.011 95.0567 178.033 95.1566C178.055 95.2565 178.033 95.3047 178.051 95.3824C178.07 95.4601 178.051 95.5858 178.07 95.6894C178.088 95.793 178.07 95.9373 178.07 96.0594C178.07 96.1815 178.07 96.2962 178.07 96.4294C178.07 96.4886 178.07 96.5515 178.07 96.6144C178.07 96.6773 178.07 96.7181 178.07 96.7699C178.07 96.8217 178.07 96.9104 178.07 96.9807C178.07 97.051 178.07 97.1583 178.07 97.2434C178.07 97.3285 178.07 97.4173 178.07 97.5024V97.6689C178.07 98.4089 178.07 99.0009 178.07 99.0009C181.733 97.6135 187.253 96.1963 191.438 98.7678H191.46C192.822 99.6307 193.949 100.818 194.738 102.224C194.946 102.574 195.142 102.944 195.327 103.334C198.857 110.76 192.493 117.075 190.11 125.171Z" fill="#FED81D"/>
<path d="M194.823 102.209C191.29 102.642 187.335 104.936 183.624 109.346C183.046 110.032 182.477 110.772 181.914 111.566C175.946 119.917 165.553 117.704 161.564 111.614C161.127 110.954 160.77 110.245 160.499 109.502C159.222 105.99 156.884 103.996 154.275 103.115C153.809 100.699 153.184 98.8825 153.339 98.0463C153.413 97.6356 153.839 97.3877 154.586 97.2804C154.638 97.2804 154.693 97.2804 154.741 97.2619C156.591 97.0473 160.121 97.569 164.939 98.5643C165.036 97.4833 165.208 96.4102 165.453 95.3527C165.5 95.1878 165.602 95.0434 165.74 94.9422C165.879 94.8411 166.047 94.7889 166.219 94.794C166.744 94.7459 167.455 94.9383 168.135 95.0012C169.294 95.1085 173.234 94.3907 175.262 93.3214C175.669 93.0834 176.119 92.9276 176.586 92.8626C177.559 92.7701 177.896 93.536 178.022 94.5831C178.022 94.6275 178.022 94.6756 178.022 94.72C178.022 94.7644 178.022 94.8162 178.022 94.868C178.022 94.9198 178.022 95.0604 178.044 95.1603C178.066 95.2602 178.044 95.3083 178.063 95.386C178.081 95.4637 178.062 95.5895 178.081 95.6931C178.099 95.7967 178.081 95.941 178.081 96.0631C178.081 96.1852 178.081 96.2999 178.081 96.4331C178.081 96.4923 178.081 96.5552 178.081 96.6181C178.081 96.681 178.081 96.7217 178.081 96.7735C178.081 96.8253 178.081 96.9141 178.081 96.9844C178.081 97.0547 178.081 97.162 178.081 97.2471C178.081 97.3322 178.081 97.421 178.081 97.5061V97.6726C178.081 98.4126 178.081 99.0046 178.081 99.0046C181.744 97.6171 187.264 96.2 191.449 98.7715H191.471C192.858 99.6196 194.01 100.801 194.823 102.209Z" fill="#FFE05C"/>
<path d="M154.623 108.366C154.611 109.414 154.507 110.459 154.312 111.488C154.223 111.929 154.12 112.376 153.994 112.832C152.715 117.229 152.202 121.813 152.477 126.385C152.624 128.402 152.879 130.41 153.239 132.401C153.354 133.085 153.48 133.788 153.609 134.499C154.001 136.63 154.442 138.817 154.86 140.741C155.529 143.841 156.14 146.261 156.362 146.661" stroke="#F7AD2B" stroke-width="0.2516" stroke-linecap="round" stroke-linejoin="round"/>
<path d="M189.484 128.275C188.119 137.4 188.027 145.843 187.934 146.72C187.842 147.597 179.687 147.386 173.619 147.149C171.254 147.057 168.198 147.123 165.316 147.175C167.684 145.203 172.583 141.962 177.282 144.011C183.805 146.857 186.88 137.881 182.898 137.078C178.917 136.275 178.71 131.746 177.933 128.083L181.189 126.762L189.484 128.275Z" fill="#FCC71F"/>
<path d="M164.702 98.6494C164.661 99.3556 164.661 100.063 164.702 100.77" stroke="#F7AD2B" stroke-width="0.2516" stroke-linecap="round" stroke-linejoin="round"/>
<path d="M177.933 98.8085C177.881 100.2 177.818 101.106 177.818 101.106" stroke="#F7AD2B" stroke-width="0.2516" stroke-linecap="round" stroke-linejoin="round"/>
<path d="M167.862 100.955C169.652 101.469 172.405 101.498 173.981 100.955" stroke="#F7AD2B" stroke-width="0.2516" stroke-linecap="round" stroke-linejoin="round"/>
<path d="M206.597 133.64C204.747 135.99 199.719 136.441 195.626 133.174C194.485 132.252 193.508 131.144 192.737 129.896C192.285 129.178 191.704 128.09 191.057 126.81C190.772 126.24 190.469 125.634 190.162 125.005C188.441 121.482 186.462 117.212 185.211 114.77C184.583 113.537 184.114 112.229 183.812 110.878C183.687 110.341 183.587 109.797 183.509 109.25C182.565 102.675 184.926 95.7708 191.301 98.5643H191.32C192.589 99.123 193.939 100.333 195.297 101.92C198.59 105.783 201.898 111.91 204.007 116.517C204.488 117.564 204.902 118.533 205.243 119.38C207.707 125.508 208.902 130.688 206.597 133.64Z" fill="#FED81D"/>
<path d="M196.921 123.251C196.777 125.548 194.08 126.496 191.057 126.81C190.772 126.24 190.469 125.633 190.161 125.004C188.441 121.482 186.461 117.212 185.211 114.77C184.583 113.537 184.114 112.229 183.812 110.878C186.402 110.933 189.225 111.881 189.484 116.324C189.662 119.358 197.247 117.993 196.921 123.251Z" fill="#FCC71F"/>
<path d="M195.297 101.931C195.075 101.931 194.853 101.968 194.635 101.998C191.105 102.464 187.176 104.802 183.509 109.25C182.565 102.675 184.926 95.7708 191.301 98.5643H191.32C192.589 99.1341 193.939 100.344 195.297 101.931Z" fill="#FFE05C"/>
<path d="M192.737 129.896C192.285 129.178 191.704 128.09 191.057 126.81C190.772 126.24 190.469 125.634 190.161 125.005C188.441 121.482 186.461 117.212 185.211 114.77C184.583 113.537 184.114 112.229 183.812 110.878C183.686 110.341 183.587 109.798 183.509 109.25" stroke="#F7AD2B" stroke-width="0.2516" stroke-linecap="round" stroke-linejoin="round"/>
<path d="M206.597 133.64C204.747 135.99 199.719 136.441 195.626 133.174C196.635 132.85 197.704 132.76 198.753 132.911C202.919 133.518 207.03 131.801 203.826 126.951C201.236 123.018 203.086 118.071 204.007 116.528C204.488 117.575 204.902 118.544 205.243 119.392C207.707 125.508 208.902 130.688 206.597 133.64Z" fill="#FCC71F"/>
<path d="M179.838 71.4618C179.058 72.0168 178.577 72.1056 178.595 72.9418C178.614 73.778 178.251 74.0222 177.885 74.1591C177.519 74.296 177.929 74.9176 177.815 75.517C177.7 76.1164 176.161 76.6862 176.161 76.6862L165.938 71.8762C165.087 70.8402 165.457 70.2667 165.73 69.7117C165.757 69.6596 165.771 69.6019 165.771 69.5434C165.771 69.4848 165.757 69.4271 165.73 69.375C165.586 69.005 164.964 68.6535 165.124 68.2206C165.327 67.6693 165.864 67.5768 166.522 67.5546C167.181 67.5324 167.036 65.7046 166.733 65.2088C166.43 64.713 166.663 63.5105 167.695 63.5808C168.727 63.6511 169.12 63.4439 169.212 62.9592C169.274 62.7905 169.371 62.6364 169.495 62.5065C169.62 62.3766 169.769 62.2738 169.935 62.2043C170.101 62.1349 170.28 62.1004 170.46 62.103C170.639 62.1055 170.817 62.1451 170.981 62.2192C171.784 62.6373 172.461 62.1748 172.956 61.716C172.985 61.6873 173.016 61.6612 173.049 61.6383C173.578 61.2276 174.688 61.0019 175.139 61.716C175.591 62.4301 176.198 62.7742 177.163 62.826C178.129 62.8778 178.403 63.6992 178.196 64.5021C177.988 65.305 178.288 65.5825 178.91 65.9525C179.236 66.2095 179.475 66.5595 179.598 66.956C179.72 67.3524 179.719 67.7767 179.594 68.1725C179.469 68.4065 179.424 68.675 179.466 68.937C179.509 69.1989 179.635 69.4399 179.827 69.6229C180.134 69.9707 180.619 70.9105 179.838 71.4618Z" fill="#473526"/>
<path d="M175.942 84.6042C175.135 84.9505 174.259 85.1087 173.382 85.0667C169.871 84.9039 161.298 88.0785 161.298 88.0785C159.858 88.2561 158.982 88.7519 159.633 89.4697C160.284 90.1875 160.894 92.2595 159.229 92.4297C158.902 92.4606 158.573 92.4606 158.245 92.4297C157.268 92.3446 156.836 91.9339 156.958 91.5491C157.113 91.057 158.171 91.1791 158.371 90.9645C158.571 90.7499 158.619 90.3133 157.968 89.7028C157.317 89.0923 156.858 88.1525 157.52 87.1942C158.182 86.2359 159.522 85.3627 158.711 84.6856C157.901 84.0085 157.231 83.4017 157.601 82.5914C157.971 81.7811 159.851 80.6341 158.974 79.6314C158.097 78.6287 157.309 77.3596 159.019 75.8056C160.728 74.2516 162.46 74.5476 162.212 73.2156C161.964 71.8836 162.171 70.6034 164.014 70.9179C165.856 71.2324 166.13 71.0992 166.94 70.6478C167.751 70.1964 168.827 70.4443 169.867 71.3471C170.907 72.2499 171.891 71.2324 173.149 71.4803C174.407 71.7282 173.149 72.9418 174.747 73.2156C176.346 73.4894 176.886 73.5523 177.067 75.0656C177.248 76.5789 178.307 76.6122 178.525 77.0932C178.98 78.0589 178.259 78.736 178.055 79.3132C177.852 79.8904 178.299 80.2308 178.654 80.8228C179.221 81.8255 178.014 83.7236 175.942 84.6042Z" fill="#604730"/>
<path d="M176.49 81.8995C176.373 82.8139 176.186 83.7181 175.931 84.6042C175.124 84.9505 174.248 85.1086 173.371 85.0667C169.86 84.9039 161.287 88.0785 161.287 88.0785C159.847 88.2561 158.97 88.7519 159.622 89.4697C160.273 90.1875 160.883 92.2595 159.218 92.4297C158.891 92.4606 158.562 92.4606 158.234 92.4297C159.481 92.2262 159.814 91.3382 159.17 90.1616C158.286 88.5447 158.604 87.5716 159.492 86.6577C160.38 85.7438 158.926 83.5386 159.492 82.3842C160.058 81.2298 161.02 80.8228 160.635 79.0801C160.251 77.3374 160.439 76.4901 161.827 75.5318C163.214 74.5735 164.361 74.3774 165.098 73.223C165.834 72.0686 167.754 71.336 168.409 72.7198C169.064 74.1036 169.275 75.0397 171.114 74.4773C172.953 73.9149 174.185 74.6068 173.53 76.1867C172.875 77.7666 173.186 79.2651 174.34 79.4575C175.495 79.6499 176.719 79.7091 176.49 81.8995Z" fill="#473526"/>
<path d="M175.18 87.1868C168.272 92.2114 165.294 93.8653 161.99 91.0866C160.45 89.7953 160.184 87.1572 160.487 84.4636C160.601 83.5028 160.774 82.5501 161.005 81.6109C161.351 80.0832 161.882 78.6034 162.585 77.2042C164.065 74.5254 167.477 74.3922 167.821 74.5254C168.165 74.6586 168.272 74.8584 167.939 75.6354C167.606 76.4124 167.973 76.9933 168.931 77.0229C169.889 77.0525 170.984 77.7185 170.881 78.6768C170.818 79.1433 170.895 79.618 171.101 80.0412C171.307 80.4645 171.633 80.8174 172.039 81.0559C172.931 81.6183 172.779 82.4804 172.897 83.0058C173.016 83.5312 174.122 84.1158 174.422 83.4017C174.721 82.6876 176.434 81.1225 177.826 82.547C179.217 83.9715 177.988 87.2867 175.18 87.1868Z" fill="#B25E47"/>
<path d="M166.9 83.5941C167.233 84.286 168.431 84.397 169.571 83.8457C170.711 83.2944 171.373 82.288 171.051 81.5961C170.729 80.9042 169.523 80.7895 168.38 81.3445C167.236 81.8995 166.567 82.9022 166.9 83.5941Z" fill="#A0503D"/>
<path d="M162.241 84.1972C161.927 84.6375 161.231 84.7189 160.487 84.4636C160.601 83.5028 160.774 82.5501 161.005 81.6109C161.068 81.6469 161.129 81.6864 161.187 81.7293C162.219 82.4693 162.689 83.5756 162.241 84.1972Z" fill="#A0503D"/>
<path d="M162.108 80.8561C162.107 80.9499 162.135 81.0418 162.186 81.1202C162.238 81.1986 162.311 81.2598 162.398 81.2962C162.484 81.3327 162.58 81.3426 162.672 81.3247C162.764 81.3069 162.849 81.2621 162.915 81.196C162.982 81.1299 163.027 81.0455 163.046 80.9535C163.064 80.8616 163.055 80.7662 163.02 80.6794C162.984 80.5926 162.923 80.5185 162.845 80.4663C162.767 80.414 162.676 80.3862 162.582 80.3862C162.457 80.3862 162.337 80.4356 162.248 80.5236C162.159 80.6116 162.109 80.7311 162.108 80.8561Z" fill="#683F1D"/>
<path d="M164.994 81.1077C164.994 81.2014 165.022 81.293 165.074 81.3708C165.126 81.4487 165.2 81.5094 165.286 81.5453C165.373 81.5811 165.468 81.5905 165.56 81.5722C165.652 81.554 165.736 81.5088 165.803 81.4426C165.869 81.3764 165.914 81.292 165.932 81.2001C165.95 81.1083 165.941 81.013 165.905 80.9265C165.869 80.84 165.809 80.766 165.731 80.7139C165.653 80.6619 165.561 80.6341 165.468 80.6341C165.342 80.6341 165.222 80.684 165.133 80.7728C165.044 80.8617 164.994 80.9821 164.994 81.1077Z" fill="#683F1D"/>
<path d="M174.925 85.0704C175.017 84.0529 176.179 82.6506 177.433 83.6866" stroke="#934735" stroke-width="0.2516" stroke-linecap="round" stroke-linejoin="round"/>
<path d="M174.969 84.8188C175.839 83.3388 177.589 85.3701 175.55 85.7771" stroke="#934735" stroke-width="0.2516" stroke-linecap="round" stroke-linejoin="round"/>
<path d="M163.459 83.8864C162.941 83.6459 162.737 83.176 162.782 83.0613C162.826 82.9466 164.447 81.7515 164.136 79.9126" stroke="#934735" stroke-width="0.2516" stroke-linecap="round" stroke-linejoin="round"/>
<path d="M165.468 77.6149C165.32 78.5732 167.647 79.5093 168.006 78.9062C168.313 78.3882 165.682 76.22 165.468 77.6149Z" fill="#604730"/>
<path d="M161.56 78.2476C161.583 78.5214 164.08 78.4659 164.047 77.5076C164.014 76.5493 161.498 77.441 161.56 78.2476Z" fill="#604730"/>
<path d="M163.703 84.8558C164.569 84.6281 165.414 84.3286 166.23 83.9604C166.23 83.9604 166.489 85.5588 165.468 85.8511C165.286 85.9033 165.097 85.9189 164.909 85.8969C164.722 85.875 164.541 85.816 164.377 85.7233C164.212 85.6307 164.068 85.5063 163.952 85.3573C163.837 85.2084 163.752 85.0379 163.703 84.8558Z" fill="white" stroke="#934735" stroke-width="0.2516" stroke-linecap="round" stroke-linejoin="round"/>
<path d="M176.86 67.5805C176.49 68.7719 175.088 67.5398 174.977 69.2418C174.866 70.9438 171.469 70.4665 170.429 68.8126C169.578 67.451 167.166 67.9616 165.749 69.4009C165.605 69.0309 164.983 68.6794 165.142 68.2465C165.346 67.6952 165.882 67.6027 166.541 67.5805C167.199 67.5583 167.055 65.7305 166.752 65.2347C166.448 64.7389 166.681 63.5364 167.714 63.6067C168.746 63.677 169.138 63.4698 169.231 62.9851C169.293 62.8163 169.389 62.6622 169.514 62.5323C169.638 62.4025 169.788 62.2996 169.954 62.2302C170.12 62.1608 170.298 62.1263 170.478 62.1288C170.658 62.1314 170.835 62.171 170.999 62.2451C171.802 62.6632 172.479 62.2007 172.975 61.7419C173.003 61.7131 173.034 61.6871 173.068 61.6642C173.463 62.7742 173.752 64.3208 175.288 64.4577C177.43 64.6538 177.23 66.3854 176.86 67.5805Z" fill="#604730"/>
<path d="M132.626 100.311C132.819 99.0897 136.249 98.1795 138.243 97.7984L139.005 102.727C139.005 102.727 133.522 101.942 132.626 100.311Z" fill="#FCC71F"/>
<path d="M135.816 102.93C135.42 97.5949 135.42 93.1068 135.309 91.39C135.198 89.6732 135.283 87.8787 137.285 87.0536C137.285 87.0536 137.285 85.4811 139.568 85.2036C139.568 85.2036 139.279 83.7939 141.188 83.8309C141.184 83.6989 141.211 83.5677 141.266 83.4478C141.322 83.3278 141.404 83.2223 141.507 83.1395C141.61 83.0567 141.73 82.9988 141.859 82.9705C141.988 82.9422 142.122 82.9441 142.25 82.9762C143.501 83.1945 143.904 83.9604 143.904 83.9604C145.562 83.5904 146.494 85.3257 146.405 86.7428C146.316 88.1599 146.217 89.7028 145.532 91.131C144.848 92.5592 143.978 94.9235 143.978 94.9235L144.034 97.9205C144.034 97.9205 142.761 107.559 135.816 102.93Z" fill="#B25E47"/>
<path d="M135.309 91.39C135.194 89.6917 135.283 87.8787 137.285 87.0536C137.285 87.0536 137.285 85.4811 139.568 85.2036C139.568 85.2036 139.279 83.7939 141.188 83.8309C141.184 83.6989 141.211 83.5677 141.266 83.4478C141.322 83.3278 141.404 83.2223 141.507 83.1395C141.61 83.0567 141.73 82.9988 141.859 82.9705C141.988 82.9422 142.122 82.9441 142.25 82.9762C143.501 83.1945 143.904 83.9604 143.904 83.9604C145.562 83.5904 146.494 85.3257 146.405 86.7428" stroke="#934735" stroke-width="0.2516" stroke-linecap="round" stroke-linejoin="round"/>
<path d="M143.904 83.9604C142.198 84.8003 140.944 86.3765 141.458 87.1498C141.973 87.9231 143.908 86.9537 144.171 86.7058" stroke="#934735" stroke-width="0.2516" stroke-linecap="round" stroke-linejoin="round"/>
<path d="M141.044 83.8346C141.688 83.9197 142.957 84.6338 142.957 84.6338" stroke="#934735" stroke-width="0.2516" stroke-linecap="round" stroke-linejoin="round"/>
<path d="M139.568 85.2036C140.315 85.2341 141.048 85.4233 141.717 85.7586" stroke="#934735" stroke-width="0.2516" stroke-linecap="round" stroke-linejoin="round"/>
<path d="M141.425 89.3439C141.995 88.911 142.487 88.1488 142.339 87.4421" stroke="#934735" stroke-width="0.2516" stroke-linecap="round" stroke-linejoin="round"/>
<path d="M137.27 87.0684C138.632 86.5097 140.015 85.877 140.426 86.8057C140.837 87.7344 141.063 90.5945 140.426 90.983C139.79 91.3715 138.724 91.0496 138.543 90.3022C138.362 89.5548 138.225 88.5299 138.225 88.5299" stroke="#934735" stroke-width="0.2516" stroke-linecap="round" stroke-linejoin="round"/>
<path d="M139.812 91.1458C140.385 91.8525 140.182 94.3537 139.568 95.1899" stroke="#934735" stroke-width="0.2516" stroke-linecap="round" stroke-linejoin="round"/>
<path d="M144.3 134.31C143.19 136.415 141.599 137.562 139.468 136.848C135.453 135.487 133.855 131.635 133.27 127.872C132.656 123.946 133.137 120.102 133.119 119.303C133.078 117.708 132.641 100.303 132.641 100.303C133.337 100.581 134.391 100.588 135.668 100.348C136.64 100.155 137.595 99.88 138.521 99.5263C140.461 98.7827 142.308 97.8141 144.022 96.6403L144.097 96.5885C144.097 96.5885 144.444 100.903 144.914 105.861C145.31 110.108 145.799 114.826 146.235 117.701C146.923 122.385 146.52 130.196 144.3 134.31Z" fill="#FED81D"/>
<path d="M144.3 134.31C143.19 136.415 141.599 137.562 139.468 136.848C135.453 135.487 133.855 131.635 133.27 127.872C133.985 129.087 134.829 130.222 135.786 131.257C138.75 134.443 141.847 135.128 144.3 134.31Z" fill="#FCC71F"/>
<path d="M144.085 96.5996C144.085 96.5996 145.284 111.466 146.224 117.723C146.736 121.702 146.611 125.738 145.854 129.678" stroke="#F7AD2B" stroke-width="0.2516" stroke-linecap="round" stroke-linejoin="round"/>
<path d="M186.532 114.486L172.257 108.524C171.132 108.054 169.838 108.585 169.368 109.711L160.891 130.004C160.421 131.13 160.952 132.424 162.078 132.894L176.353 138.856C177.478 139.327 178.772 138.795 179.242 137.669L187.719 117.376C188.189 116.25 187.657 114.956 186.532 114.486Z" fill="#EDEDED"/>
<path d="M184.926 113.812L172.256 108.52C171.13 108.05 169.837 108.581 169.367 109.707L160.89 130.001C160.42 131.126 160.951 132.42 162.077 132.89L174.747 138.182C175.872 138.652 177.166 138.121 177.636 136.995L186.113 116.702C186.583 115.576 186.052 114.282 184.926 113.812Z" fill="#F9F9F9" stroke="#DDDDDD" stroke-width="0.333" stroke-linecap="round" stroke-linejoin="round"/>
<path d="M173.097 111.899C173.097 112.089 173.041 112.275 172.935 112.434C172.829 112.592 172.679 112.715 172.503 112.788C172.327 112.861 172.134 112.88 171.947 112.843C171.761 112.805 171.589 112.714 171.455 112.579C171.32 112.445 171.229 112.273 171.192 112.087C171.154 111.9 171.174 111.707 171.246 111.531C171.319 111.355 171.442 111.205 171.601 111.099C171.759 110.994 171.945 110.937 172.135 110.937C172.262 110.937 172.387 110.961 172.504 111.009C172.621 111.057 172.727 111.128 172.816 111.218C172.906 111.307 172.977 111.413 173.025 111.53C173.073 111.647 173.098 111.773 173.097 111.899Z" fill="#EDEDED"/>
<path d="M174.684 112.85C174.685 112.945 174.657 113.039 174.605 113.119C174.552 113.198 174.477 113.261 174.389 113.297C174.301 113.334 174.204 113.344 174.11 113.326C174.017 113.307 173.931 113.261 173.863 113.194C173.796 113.126 173.75 113.04 173.731 112.947C173.713 112.853 173.723 112.756 173.76 112.668C173.797 112.58 173.859 112.505 173.938 112.452C174.018 112.4 174.112 112.372 174.207 112.373C174.333 112.374 174.454 112.424 174.544 112.514C174.633 112.603 174.683 112.724 174.684 112.85Z" fill="#EDEDED"/>
<path d="M173.981 128.808C173.038 128.479 172.549 126.655 172.424 125.082L176.124 125.519C176.124 125.519 176.15 129.045 173.981 128.808Z" fill="#FCC71F"/>
<path d="M175.225 127.879C174.175 127.13 173.088 126.433 171.969 125.793C171.547 125.563 169.153 125.293 167.488 124.375C166.366 123.742 165.285 123.038 164.25 122.27L163.592 123.495C163.592 123.495 162.297 122.096 162.112 120.835C161.927 119.573 162.437 119.532 162.741 119.262C163.044 118.992 162.856 118.592 162.837 117.941C162.819 117.29 163.373 117.157 163.547 116.927C163.721 116.698 163.566 116.102 163.529 115.299C163.492 114.496 164.446 114.456 164.598 113.997C164.75 113.538 164.887 112.062 166.189 112.447C167.492 112.832 173.16 117.042 173.53 117.235C174.081 117.432 174.645 117.591 175.217 117.712C175.217 117.712 179.857 124.967 175.225 127.879Z" fill="#B25E47"/>
<path d="M164.25 122.27L163.592 123.495C163.592 123.495 162.297 122.096 162.112 120.835C161.927 119.573 162.437 119.532 162.741 119.262C163.044 118.992 162.856 118.592 162.837 117.941C162.819 117.29 163.373 117.157 163.547 116.927C163.721 116.698 163.566 116.102 163.529 115.299C163.492 114.496 164.446 114.456 164.598 113.997C164.75 113.538 164.887 112.062 166.189 112.447" stroke="#934735" stroke-width="0.2516" stroke-linecap="round" stroke-linejoin="round"/>
<path d="M164.25 122.27C163.603 121.726 163.47 121.638 163.47 121.638" stroke="#934735" stroke-width="0.2516" stroke-linecap="round" stroke-linejoin="round"/>
<path d="M207.322 132.664C206.134 136.312 201.705 139.546 191.608 135.727L191.057 135.513C180.56 131.35 173.978 128.804 173.978 128.804C174.885 124.966 174.885 120.969 173.978 117.131C180.005 118.818 195.945 122.089 201.606 123.75C201.976 123.861 202.346 123.976 202.675 124.12C207.426 125.874 208.469 129.13 207.322 132.664Z" fill="#FED81D"/>
<path d="M191.057 135.513C180.56 131.35 173.981 128.808 173.981 128.808" stroke="#F7AD2B" stroke-width="0.2516" stroke-linecap="round" stroke-linejoin="round"/>
<path d="M173.981 117.131C179.45 118.663 193.088 121.497 199.793 123.251" stroke="#F7AD2B" stroke-width="0.2516" stroke-linecap="round" stroke-linejoin="round"/>
<path d="M207.322 132.663C206.134 136.312 201.705 139.545 191.608 135.727C191.608 135.727 194.568 132.305 198.753 132.911C202.938 133.518 207.03 131.801 203.826 126.951C203.258 126.088 202.867 125.12 202.675 124.105C207.426 125.874 208.469 129.13 207.322 132.663Z" fill="#FCC71F"/>
<path d="M245.062 100.755C244.672 101.38 244.104 101.875 243.43 102.176C238.735 104.396 228.12 100.17 228.12 100.041C228.12 99.9111 226.07 82.51 229 76.2533C229.552 75.0804 230.277 74.3034 231.22 74.1147C236.071 73.9667 240.234 75.6132 240.944 79.1134C241.654 82.6136 239.542 86.6466 240.16 89.1367C240.777 91.6268 243.29 91.6786 244.344 92.2114C246.253 93.1697 248.041 95.8078 245.062 100.755Z" fill="#DD6819"/>
<path d="M243.43 102.176C238.735 104.396 228.12 100.17 228.12 100.041C228.12 99.9111 226.07 82.51 229 76.2533C236.933 76.5419 238.25 79.4686 237.655 83.5238C237.022 87.8343 234.136 93.7432 240.419 97.9982C242.313 99.2858 243.164 100.751 243.43 102.176Z" fill="#CC5E0D"/>
<path d="M233.366 84.7485C234.524 86.0472 234.695 87.6826 234.217 89.5252C233.74 91.3678 233 94.0614 233.918 96.7217" stroke="#FF79A0" stroke-width="0.2516" stroke-linecap="round" stroke-linejoin="round"/>
<path d="M238.687 83.1094C238.628 85.5773 237.884 87.2756 237.673 89.5992C237.462 91.9228 238.898 93.2622 240.715 93.9763C241.468 94.2906 242.067 94.8905 242.38 95.6448C242.692 96.3992 242.694 97.2466 242.383 98.0019" stroke="#FF79A0" stroke-width="0.2516" stroke-linecap="round" stroke-linejoin="round"/>
<path d="M237.411 97.7133C235.664 95.6857 235.324 94.202 236.367 94.0466C237.411 93.8912 239.464 94.7866 239.257 95.6857C239.05 96.5848 237.721 96.2038 237.777 95.7635" stroke="#FF79A0" stroke-width="0.2516" stroke-linecap="round" stroke-linejoin="round"/>
<path d="M229.237 109.579C224.279 112.169 220.672 109.694 220.206 106.949C219.902 105.15 220.08 101.006 220.183 96.6995C220.235 94.4462 220.272 92.1411 220.206 90.1135C220.206 89.7953 220.206 89.4882 220.206 89.1848C220.206 76.368 229.996 79.3391 230.791 84.3008C231.294 87.4495 232.068 93.721 232.445 97.0288C232.822 100.337 234.21 106.989 229.237 109.579Z" fill="#FEBD9D"/>
<path d="M220.183 96.6995C220.235 94.4462 220.272 92.1411 220.206 90.1135C220.206 89.7953 220.206 89.4882 220.206 89.1848C222.64 89.0664 226.496 88.948 226.496 88.948C227.206 93.9467 224.357 97.1731 220.183 96.6995Z" fill="#F4A789"/>
<path d="M202.66 153.713C203.108 154.397 206.36 151.863 207.292 150.383L203.988 145.824C203.988 145.824 201.376 151.726 202.66 153.713Z" fill="#A7CAF0"/>
<path d="M210.685 141.484C214.755 147.697 216.642 149.658 216.935 152.244C217.227 154.83 216.143 161.25 213.268 162.334C210.393 163.418 203.759 158.871 203.507 157.831C203.256 156.791 206.404 157.246 207.877 157.953C207.877 157.953 205.065 154.179 205.065 149.95C205.065 148.866 201.173 146.738 201.173 146.738C201.173 146.738 204.395 137.063 210.685 141.484Z" fill="#FEBD9D"/>
<path d="M259.714 188.234C247.108 183.749 231.594 179.417 215.196 175.791V168.443C215.196 166.456 215.425 163.096 215.721 159.459C215.962 156.455 216.247 153.261 216.461 150.505C216.657 148.189 216.809 146.176 216.876 144.84L221.874 144.788L231.202 144.7L250.246 144.511L253.335 144.481C253.687 153.254 256.762 163.662 258.926 171.562C260.48 177.193 260.077 184.452 259.714 188.234Z" fill="#111827"/>
<path d="M249.01 159.126C247.756 163.14 249.091 167.133 251.519 168.443" stroke="#91613D" stroke-width="0.2516" stroke-linecap="round" stroke-linejoin="round"/>
<path d="M202.66 126.762L204.913 130.699L211.618 142.413" stroke="#83ADDF" stroke-width="0.2516" stroke-linecap="round" stroke-linejoin="round"/>
<path d="M249.528 145.343C248.566 145.54 243.201 145.713 237.092 145.787C227.842 145.884 216.89 145.695 216.89 144.84C216.89 143.501 217.475 142.25 215.803 139.316C214.13 136.382 211.363 134.092 211.115 128.753C210.867 123.414 212.117 117.471 212.117 117.471L209.494 120.061L202.66 126.762L204.913 130.699L211.618 142.413C211.618 142.413 202.579 145.928 202.66 153.713C202.66 153.713 190.276 138.313 186.595 133.041C182.913 127.768 187.094 121.741 193.036 115.547C195.996 112.454 199.249 108.288 202.497 104.78C205.746 101.273 209.02 98.4311 212.036 97.9982C213.742 97.754 216.106 97.5431 218.652 97.3729C219.147 97.3359 219.647 97.3026 220.154 97.273C220.017 102.501 221.526 103.467 221.526 103.467C222.266 103.903 222.344 103.7 222.411 104.577C222.477 105.454 222.884 107.94 223.598 107.94C224.586 107.94 225.223 106.32 226.059 103.974C226.61 101.169 230.073 100.074 231.191 98.5495C231.578 98.001 231.849 97.379 231.986 96.7217H232.397C233.045 96.8808 233.825 97.0621 234.68 97.236C236.9 97.6874 239.627 98.1018 241.839 97.9982C244.774 97.865 253.365 98.0389 255.922 104.821C255.922 104.821 255.922 104.84 255.922 104.851C256.029 105.139 256.125 105.443 256.214 105.757C256.281 106.005 256.34 106.279 256.392 106.575C257.909 115.44 251.878 144.855 249.528 145.343Z" fill="#C3DCF8"/>
<path d="M241.24 122.156C236.208 123.92 234.861 130.869 236.001 133.666C237.14 136.463 233.252 137.832 229.541 137.832C225.267 137.832 220.187 142.328 222.363 148.759L244.193 138.769L241.24 122.156Z" fill="#A7CAF0"/>
<path d="M256.565 106.641C256.514 106.615 256.454 106.597 256.403 106.575C251.837 104.769 246.49 105.909 243.012 108.795C242.129 109.516 241.365 110.371 240.748 111.329C236.585 117.875 223.199 121.449 218.803 112.868C215.244 105.912 209.923 103.733 202.497 104.784C205.753 101.276 209.02 98.4348 212.036 98.0019C213.742 97.7577 216.106 97.5468 218.651 97.3766C219.147 97.3396 219.647 97.3063 220.154 97.2767C220.017 102.505 221.526 103.47 221.526 103.47C222.266 103.907 222.344 103.704 222.411 104.58C222.477 105.457 222.884 107.944 223.598 107.944C224.586 107.944 225.223 106.323 226.059 103.977C226.61 101.173 230.073 100.078 231.191 98.5532C231.578 98.0047 231.849 97.3826 231.986 96.7254H232.397C233.044 96.8845 233.825 97.0658 234.68 97.2397C236.9 97.6911 239.627 98.1055 241.839 98.0019C244.773 97.8687 253.365 98.0426 255.922 104.825C255.922 104.825 255.922 104.843 255.922 104.854C256.176 105.435 256.391 106.032 256.565 106.641Z" fill="#D0E5F7"/>
<path d="M224.812 110.408C225.239 110.408 225.585 110.062 225.585 109.635C225.585 109.208 225.239 108.861 224.812 108.861C224.385 108.861 224.039 109.208 224.039 109.635C224.039 110.062 224.385 110.408 224.812 110.408Z" fill="#83ADDF"/>
<path d="M223.173 109.272C223.402 111.351 222.759 115.022 222.266 118.733C221.774 122.444 220.601 127.55 222.266 132.793C223.931 138.036 224.305 139.645 224.35 140.285C224.424 141.421 223.558 142.72 225.711 143.615" stroke="#83ADDF" stroke-width="0.2516" stroke-linecap="round" stroke-linejoin="round"/>
<path d="M221.526 103.467C219.469 102.978 218.004 105.487 217.22 107.607C217.142 101.48 217.882 98.6642 218.651 97.3729C219.421 96.0816 220.194 96.3258 220.194 96.3258C220.172 96.6588 220.161 96.9733 220.154 97.273C220.017 102.49 221.526 103.467 221.526 103.467Z" fill="#83ADDF"/>
<path d="M234.702 99.6484C234.154 103.138 231.968 107.948 231.968 107.948C231.968 107.948 230.229 105.979 229.008 104.492C227.787 103.004 227.08 103.249 226.048 103.981C226.599 101.177 230.062 100.081 231.18 98.5569C231.567 98.0084 231.838 97.3863 231.975 96.7291C232.12 96.1085 232.185 95.4718 232.168 94.8347C232.78 94.931 233.348 95.2129 233.796 95.6423C234.243 96.0717 234.548 96.6279 234.669 97.236C234.833 98.0307 234.845 98.8495 234.702 99.6484Z" fill="#83ADDF"/>
<path d="M200.999 148.511C201.406 146.313 204.207 142.472 208.65 140.452" stroke="#83ADDF" stroke-width="0.2516" stroke-linecap="round" stroke-linejoin="round"/>
<path d="M196.921 121.793C197.574 121.831 198.205 122.039 198.753 122.396C199.863 123.043 201.221 124.327 202.66 126.762" stroke="#83ADDF" stroke-width="0.2516" stroke-linecap="round" stroke-linejoin="round"/>
<path d="M212.117 117.471L212.78 114.637" stroke="#83ADDF" stroke-width="0.2516" stroke-linecap="round" stroke-linejoin="round"/>
<path d="M209.494 120.05L202.66 126.762C201.221 124.327 199.848 123.044 198.753 122.396C200.525 121.601 201.398 122.326 202.257 122.958C204.381 124.535 206.382 118.296 209.494 120.05Z" fill="#A7CAF0"/>
<path d="M256.884 130.129C256.088 136.745 254.826 143.112 253.524 147.486C251.012 155.907 244.703 156.388 240.629 153.702C238.269 152.14 236.656 149.517 236.974 146.753C237.003 146.479 237.044 146.157 237.092 145.787C237.832 140.119 240.308 123.484 241.799 114.027C242.062 112.248 242.467 110.493 243.012 108.78C244.951 102.86 248.192 101.029 252.181 101.439C253.831 101.609 255.052 102.838 255.922 104.81C255.922 104.81 255.922 104.828 255.922 104.84C256.173 105.421 256.384 106.02 256.554 106.63C258.16 112.195 257.931 121.36 256.884 130.129Z" fill="#C3DCF8"/>
<path d="M256.884 130.129C256.088 136.745 254.826 143.112 253.524 147.486C251.012 155.907 244.703 156.388 240.629 153.702C241.393 152.966 242.348 152.461 243.386 152.244C247.985 151.378 250.727 147.852 250.046 140.452C249.513 134.835 254.46 131.443 256.884 130.129Z" fill="#A7CAF0"/>
<path d="M256.565 106.641C256.514 106.616 256.454 106.597 256.403 106.575C251.837 104.769 246.49 105.909 243.012 108.795C244.951 102.875 248.192 101.043 252.181 101.454C253.831 101.624 255.052 102.853 255.922 104.825C255.922 104.825 255.922 104.843 255.922 104.854C256.176 105.435 256.391 106.032 256.565 106.641Z" fill="#D0E5F7"/>
<path d="M238.202 137.832C239.275 130.432 240.792 120.535 241.799 114.027C242.062 112.248 242.467 110.493 243.012 108.78C243.419 107.481 243.985 106.238 244.7 105.08" stroke="#83ADDF" stroke-width="0.2516" stroke-linecap="round" stroke-linejoin="round"/>
<path d="M206.874 168.439C204.928 168.809 202.956 165.904 202.305 164.117C201.654 162.33 206.852 161.527 206.852 161.527C206.852 161.527 208.543 167.051 206.874 168.439Z" fill="#A7CAF0"/>
<path d="M202.061 155.474C198.257 156.743 189.34 161.176 188.863 161.546C188.386 161.916 186.965 165.157 186.913 165.645C186.861 166.134 186.28 171.195 187.227 171.521C188.175 171.847 188.652 169.745 188.863 168.443C189.064 167.475 189.383 166.535 189.814 165.645C189.814 165.645 189.237 167.691 190.08 168.443C190.569 168.879 191.66 168.443 191.66 168.443C191.66 168.443 191.926 169.778 193.669 169.146C193.669 169.146 193.566 170.563 194.713 170.84C195.86 171.118 196.933 169.837 197.388 169.083C197.55 168.827 197.14 168.08 196.607 168.08C196.607 168.08 197.081 167.773 198.505 167.773C199.93 167.773 201.628 167.854 202.716 166.208C203.803 164.561 205.032 163.777 206.046 163.514L202.061 155.474Z" fill="#FEBD9D"/>
<path d="M186.913 165.645C186.857 166.137 186.28 171.195 187.227 171.521C188.175 171.846 188.652 169.745 188.863 168.442C189.064 167.475 189.383 166.535 189.814 165.645C189.814 165.645 189.237 167.691 190.08 168.442C190.569 168.879 191.66 168.442 191.66 168.442C191.66 168.442 191.926 169.778 193.669 169.145C193.669 169.145 193.566 170.563 194.713 170.84C195.86 171.118 196.933 169.837 197.388 169.083C197.55 168.827 197.14 168.08 196.607 168.08" stroke="#EF8A66" stroke-width="0.2516" stroke-linecap="round" stroke-linejoin="round"/>
<path d="M196.818 168.117C196.528 168.075 196.233 168.095 195.952 168.176" stroke="#EF8A66" stroke-width="0.2516" stroke-linecap="round" stroke-linejoin="round"/>
<path d="M196.222 167.24C195.937 167.98 195.582 169.112 195.723 169.438" stroke="#EF8A66" stroke-width="0.2516" stroke-linecap="round" stroke-linejoin="round"/>
<path d="M193.673 169.423C193.647 167.917 194.031 166.432 194.783 165.127" stroke="#EF8A66" stroke-width="0.2516" stroke-linecap="round" stroke-linejoin="round"/>
<path d="M191.66 168.443C191.382 167.333 192.237 164.509 192.922 163.688" stroke="#EF8A66" stroke-width="0.2516" stroke-linecap="round" stroke-linejoin="round"/>
<path d="M189.81 165.645C189.917 164.905 190.069 162.881 191.175 161.945" stroke="#EF8A66" stroke-width="0.2516" stroke-linecap="round" stroke-linejoin="round"/>
<path d="M247.926 154.66C246.279 155.526 242.331 157.013 237.499 158.7C225.115 163.018 206.922 168.639 206.874 168.439C206.808 168.161 205.209 160.872 199.726 156.014C199.726 156.014 225.167 143.856 233.318 140.049C238.213 137.762 245.702 133.877 249.735 137.573C249.883 137.707 250.024 137.847 250.157 137.992C254.504 142.568 253.605 151.667 247.926 154.66Z" fill="#C3DCF8"/>
<path d="M247.926 154.66C246.279 155.526 242.331 157.013 237.499 158.7C238.354 156.48 240.215 152.84 243.386 152.244C247.985 151.378 250.727 147.852 250.046 140.452C249.967 139.63 250.009 138.801 250.168 137.992C254.504 142.568 253.605 151.667 247.926 154.66Z" fill="#A7CAF0"/>
<path d="M199.726 156.014C199.726 156.014 225.167 143.856 233.318 140.049C235.657 138.957 238.587 137.499 241.458 136.678" stroke="#83ADDF" stroke-width="0.2516" stroke-linecap="round" stroke-linejoin="round"/>
<path d="M205.065 155.156C208.14 158.926 210.685 165.645 210.685 165.645" stroke="#83ADDF" stroke-width="0.2516" stroke-linecap="round" stroke-linejoin="round"/>
<path d="M232.771 74.1554C235.076 75.2654 236.981 80.1161 232.9 83.1094C228.819 86.1027 230.68 78.9543 230.78 78.8174C230.88 78.6805 231.009 74.3219 232.771 74.1554Z" fill="#FED81D"/>
<path d="M232.915 80.3233C232.741 80.6568 232.502 80.9524 232.212 81.1928C232.212 81.1928 227.824 84.2083 225.089 82.5988C222.355 80.9893 219.007 77.1709 219.007 77.1709C217.775 76.2533 217.101 75.5355 216.857 74.7326C216.738 74.3188 216.717 73.8832 216.794 73.4598C217.02 72.0316 218.537 68.8348 223.365 70.0188C223.365 70.0188 224.213 68.9458 225.955 69.5933C227.698 70.2408 229.215 72.1426 229.215 72.1426C229.215 72.1426 230.913 71.5395 232.767 74.1554C234.228 76.22 233.736 78.8803 232.915 80.3233Z" fill="#DD6819"/>
<path d="M232.915 80.3233C232.741 80.6568 232.502 80.9524 232.212 81.1928C232.212 81.1928 227.824 84.2083 225.089 82.5988C222.355 80.9893 219.007 77.1709 219.007 77.1709C217.775 76.2533 217.101 75.5355 216.857 74.7326C217.079 72.4053 218.152 70.7403 220.413 71.4359C223.617 72.4238 225.163 74.1961 228.353 73.3414C228.353 73.3414 229.16 79.6388 232.915 80.3233Z" fill="#CC5E0D"/>
<path d="M218.444 72.6976C219.022 72.0686 220.202 72.0945 221.956 73.9186" stroke="#FF79A0" stroke-width="0.2516" stroke-linecap="round" stroke-linejoin="round"/>
<path d="M222.329 69.8227C223.649 70.0982 224.895 70.6478 225.989 71.4359" stroke="#FF79A0" stroke-width="0.2516" stroke-linecap="round" stroke-linejoin="round"/>
<path d="M229.219 72.15C229.515 72.5168 229.764 72.9196 229.959 73.3488" stroke="#FF79A0" stroke-width="0.2516" stroke-linecap="round" stroke-linejoin="round"/>
<path d="M230.14 85.7253C226.244 91.2087 221.212 94.1983 218.174 91.6453C215.932 89.7694 215.917 86.0361 216.446 83.028C216.599 82.1528 216.805 81.2879 217.064 80.438C217.086 80.364 217.112 80.2937 217.134 80.2234C218.085 77.2634 219.491 72.8234 221.756 73.7447C221.756 73.7447 223.524 75.3283 226.877 74.6475C226.877 74.6475 225.156 80.9375 229.052 81.6775C229.052 81.6775 230.773 79.4575 232.752 80.6378C234.732 81.8181 234.754 85.6772 230.14 85.7253Z" fill="#FEBD9D"/>
<path d="M222.044 79.2207C222.044 79.3145 222.071 79.4064 222.122 79.4848C222.174 79.5632 222.248 79.6244 222.334 79.6608C222.421 79.6973 222.516 79.7072 222.608 79.6893C222.7 79.6715 222.785 79.6266 222.852 79.5606C222.918 79.4945 222.964 79.4101 222.982 79.3181C223.001 79.2262 222.992 79.1307 222.956 79.044C222.92 78.9572 222.859 78.883 222.781 78.8308C222.704 78.7786 222.612 78.7508 222.518 78.7508C222.393 78.7508 222.273 78.8002 222.184 78.8882C222.096 78.9762 222.045 79.0957 222.044 79.2207Z" fill="#111827"/>
<path d="M218.803 79.2207C218.802 79.3145 218.83 79.4064 218.881 79.4848C218.933 79.5632 219.006 79.6244 219.093 79.6608C219.179 79.6973 219.275 79.7072 219.367 79.6893C219.459 79.6715 219.544 79.6266 219.61 79.5606C219.677 79.4945 219.722 79.4101 219.741 79.3181C219.76 79.2262 219.75 79.1307 219.715 79.044C219.679 78.9572 219.618 78.883 219.54 78.8308C219.462 78.7786 219.371 78.7508 219.277 78.7508C219.152 78.7508 219.032 78.8002 218.943 78.8882C218.854 78.9762 218.804 79.0957 218.803 79.2207Z" fill="#111827"/>
<path d="M229.03 81.6923C228.674 82.093 228.434 82.5828 228.334 83.1094" stroke="#EF8A66" stroke-width="0.2516" stroke-linecap="round" stroke-linejoin="round"/>
<path d="M229.548 83.3092C230.369 81.4592 232.138 81.3482 233.156 82.1733" stroke="#EF8A66" stroke-width="0.2516" stroke-linecap="round" stroke-linejoin="round"/>
<path d="M229.966 82.5988C231.539 81.5517 232.46 84.3008 230.403 84.3008" stroke="#EF8A66" stroke-width="0.2516" stroke-linecap="round" stroke-linejoin="round"/>
<path d="M217.83 77.1561C217.952 77.5483 220.479 77.3226 220.42 76.4383C220.324 75.2506 217.601 76.4124 217.83 77.1561Z" fill="#DD6819"/>
<path d="M222.314 76.3754C222.233 77.1709 224.675 77.8554 224.904 77.4373C225.134 77.0192 222.466 74.8658 222.314 76.3754Z" fill="#DD6819"/>
<path d="M219.184 81.8403C219.11 81.1003 219.502 80.2678 220.035 80.0791C220.568 79.8904 221.393 79.3761 221.208 77.4558" stroke="#EF8A66" stroke-width="0.2516" stroke-linecap="round" stroke-linejoin="round"/>
<path d="M219.75 83.3092C220.698 83.3092 222.174 82.5914 222.411 82.2991C222.411 82.2991 222.522 84.5746 221.234 84.7374C220.15 84.878 219.75 83.3092 219.75 83.3092Z" fill="white" stroke="#EF8A66" stroke-width="0.2516" stroke-linecap="round" stroke-linejoin="round"/>
<path d="M230.462 86.987C231.277 86.987 231.938 86.326 231.938 85.5107C231.938 84.6954 231.277 84.0344 230.462 84.0344C229.647 84.0344 228.986 84.6954 228.986 85.5107C228.986 86.326 229.647 86.987 230.462 86.987Z" fill="white"/>
<path d="M227.273 81.0596C227.543 81.7256 226.928 82.6062 225.892 83.028C224.856 83.4498 223.802 83.2537 223.528 82.5877C223.254 81.9217 223.872 81.0374 224.908 80.6156C225.944 80.1938 226.999 80.3936 227.273 81.0596Z" fill="#F4AF90"/>
<path d="M218.326 82.6876C218.03 83.1982 217.249 83.3277 216.439 83.0576C216.592 82.1824 216.798 81.3175 217.057 80.4676L217.227 80.5601C218.196 81.1077 218.688 82.066 218.326 82.6876Z" fill="#F4AF90"/>
<path d="M169.183 178.858L187.86 174.566L204.318 180.197L188.256 185.684L169.183 178.858Z" stroke="#DDDDDD" stroke-width="0.333" stroke-linecap="round" stroke-linejoin="round"/>
<path d="M179.998 175.354V178.858C179.998 180.023 182.995 180.967 186.695 180.967C190.395 180.967 193.395 180.023 193.395 178.858V175.354H179.998Z" fill="#DDDDDD" stroke="#DDDDDD" stroke-width="0.333" stroke-miterlimit="10"/>
<path d="M186.695 177.297C182.787 177.297 180.164 176.294 180.164 175.354C180.164 174.414 182.787 173.412 186.695 173.412C190.602 173.412 193.225 174.418 193.225 175.354C193.225 176.29 190.602 177.297 186.695 177.297Z" fill="#F9F9F9"/>
<path d="M186.695 173.578C190.639 173.578 193.059 174.614 193.059 175.354C193.059 176.094 190.639 177.13 186.695 177.13C182.75 177.13 180.331 176.094 180.331 175.354C180.331 174.614 182.75 173.578 186.695 173.578ZM186.695 173.245C182.995 173.245 179.998 174.189 179.998 175.354C179.998 176.52 182.995 177.463 186.695 177.463C190.395 177.463 193.395 176.52 193.395 175.354C193.395 174.189 190.395 173.245 186.695 173.245Z" fill="#DDDDDD"/>
<path d="M174.392 178.962C174.392 179.191 174.788 179.38 175.276 179.38C175.765 179.38 176.161 179.191 176.161 178.962C176.161 178.732 175.765 178.543 175.276 178.543C174.788 178.543 174.392 178.732 174.392 178.962Z" fill="#DDDDDD"/>
<path d="M187.538 183.786C187.538 184.016 187.934 184.204 188.423 184.204C188.911 184.204 189.303 184.016 189.303 183.786C189.303 183.557 188.907 183.368 188.423 183.368C187.938 183.368 187.538 183.557 187.538 183.786Z" fill="#DDDDDD"/>
<path d="M198.561 180.123C198.561 180.353 198.956 180.541 199.445 180.541C199.933 180.541 200.329 180.353 200.329 180.123C200.329 179.894 199.933 179.705 199.445 179.705C198.956 179.705 198.561 179.894 198.561 180.123Z" fill="#DDDDDD"/>
<path d="M7.32974 163.514C20.6164 163.1 35.15 162.844 50.32 162.8C63.9656 162.763 78.1292 162.904 92.3446 163.27C95.3219 163.344 98.3029 163.43 101.288 163.529C119.096 164.11 136.859 165.057 153.691 166.47C156.53 166.702 159.341 166.949 162.123 167.21C171.558 168.109 181.411 169.43 191.283 171.114C199.319 172.468 207.367 174.041 215.211 175.78C231.62 179.406 247.123 183.738 259.729 188.223C272.768 192.866 282.706 197.68 287.335 202.068" stroke="#EDEDED" stroke-width="0.6697" stroke-linecap="round" stroke-linejoin="round"/>
<path d="M170.274 183.15C164.299 186.243 129.226 195.36 129.226 195.36L126.015 192.182L105.517 171.909C105.517 171.909 125.079 167.98 128.727 168.42C131.776 168.79 159.13 176.083 167.869 180.445C169.578 181.318 170.714 182.924 170.274 183.15Z" stroke="#EDEDED" stroke-width="0.333" stroke-linecap="round" stroke-linejoin="round"/>
<path d="M106.405 175.058C120.972 172.594 126.71 170.988 128.767 171.55C130.825 172.113 158.623 180.001 158.157 180.123C145.107 183.542 121.845 188.985 121.845 188.985L106.405 175.058Z" stroke="#DDDDDD" stroke-width="0.333" stroke-linecap="round" stroke-linejoin="round"/>
<path d="M170.274 183.15C164.299 186.243 129.226 195.36 129.226 195.36L126.015 192.182L167.869 180.467C169.578 181.318 170.714 182.924 170.274 183.15Z" fill="#EDEDED"/>
<path d="M85.2443 161.535C81.6109 154.786 83.7939 143.708 89.9137 142.879C96.0335 142.05 104.148 149.968 107.304 146.039C110.73 141.758 107.944 121.101 107.97 117.368L123.321 115.81C123.321 115.81 120.394 143.874 124.405 147.142C126.755 149.054 129.504 148.788 131.15 145.332C132.63 142.195 134.721 139.668 138.469 142.576C138.469 142.576 140.57 137.688 148.71 139.616C156.85 141.543 152.144 150.93 150.25 152.196C150.25 152.196 153.95 155.463 152.777 159.596C151.604 163.729 145.636 165.627 145.636 165.627C145.636 165.627 148.111 171.269 143.16 173.067C138.21 174.866 134.998 174.233 131.746 173.067C128.494 171.902 122.866 168.997 119.699 173.456C116.531 177.914 94.5424 178.817 85.2443 161.535Z" fill="#F9F9F9" stroke="#EDEDED" stroke-width="0.6697" stroke-linecap="round" stroke-linejoin="round"/>
<path d="M106.405 125.019C103.393 125.874 101.865 129.089 101.065 132.275C100.266 135.461 100.585 135.993 99.6965 135.213C98.7456 134.377 96.6847 128.431 97.791 119.358C98.6124 112.621 101.643 109.509 103.389 108.258C103.889 113.827 104.891 119.339 106.382 124.727C106.395 124.824 106.403 124.921 106.405 125.019Z" fill="#EDEDED" stroke="#EDEDED" stroke-width="0.6697" stroke-linecap="round" stroke-linejoin="round"/>
<path d="M131.28 135.213C130.392 135.993 130.699 135.453 129.907 132.275C129.115 129.097 127.583 125.874 124.572 125.019C124.573 124.923 124.579 124.826 124.59 124.731C126.087 119.34 127.09 113.824 127.587 108.251C129.333 109.513 132.364 112.624 133.185 119.351C134.288 128.431 132.234 134.377 131.28 135.213Z" fill="#EDEDED" stroke="#EDEDED" stroke-width="0.6697" stroke-linecap="round" stroke-linejoin="round"/>
<path d="M127.587 108.247C127.09 113.82 126.087 119.336 124.59 124.727C124.45 125.208 124.313 125.682 124.168 126.14H106.804C106.66 125.678 106.519 125.201 106.382 124.716C104.891 119.328 103.889 113.816 103.389 108.247C102.59 99.7372 102.76 90.2282 104.617 81.1077C104.858 79.9348 105.117 78.81 105.394 77.7407C108.998 63.7695 115.488 58.0345 115.488 58.0345C115.488 58.0345 121.982 63.7695 125.582 77.7407C125.859 78.81 126.122 79.9348 126.359 81.1077C128.216 90.2282 128.39 99.7224 127.587 108.247Z" fill="#F9F9F9" stroke="#DDDDDD" stroke-width="0.6697" stroke-linecap="round" stroke-linejoin="round"/>
<path d="M125.582 77.7407H105.394C108.998 63.7695 115.488 58.0345 115.488 58.0345C115.488 58.0345 121.982 63.7695 125.582 77.7407Z" fill="#DDDDDD" stroke="#DDDDDD" stroke-width="0.333" stroke-miterlimit="10"/>
<path d="M120.313 94.6016C119.68 95.237 118.928 95.7412 118.1 96.0853C117.272 96.4293 116.385 96.6064 115.488 96.6064C114.591 96.6064 113.704 96.4293 112.876 96.0853C112.048 95.7412 111.296 95.237 110.663 94.6016C109.389 93.3198 108.674 91.5859 108.674 89.7786C108.674 87.9713 109.389 86.2375 110.663 84.9557C111.296 84.3202 112.048 83.816 112.876 83.472C113.704 83.1279 114.591 82.9508 115.488 82.9508C116.385 82.9508 117.272 83.1279 118.1 83.472C118.928 83.816 119.68 84.3202 120.313 84.9557C120.726 85.3677 121.084 85.8316 121.378 86.3358C122.138 87.638 122.445 89.1549 122.253 90.65C122.06 92.1452 121.378 93.5345 120.313 94.6016Z" fill="#EDEDED" stroke="#F9F9F9" stroke-width="0.6697" stroke-linecap="round" stroke-linejoin="round"/>
<path d="M121.378 86.3358L112.043 95.6709C111.54 95.3745 111.076 95.0152 110.663 94.6015C110.251 94.1881 109.894 93.723 109.601 93.2178L118.933 83.8864C119.436 84.1827 119.9 84.542 120.313 84.9557C120.726 85.3677 121.084 85.8316 121.378 86.3358Z" fill="#F9F9F9"/>
<path d="M115.488 106.797C112.573 110.667 111.048 130.244 115.488 135.531C119.936 130.24 118.4 110.667 115.488 106.797Z" fill="#DDDDDD" stroke="#DDDDDD" stroke-width="0.333" stroke-miterlimit="10"/>
<path d="M120.313 94.6016C119.68 95.237 118.928 95.7412 118.1 96.0853C117.272 96.4293 116.385 96.6064 115.488 96.6064C114.591 96.6064 113.704 96.4293 112.876 96.0853C112.048 95.7412 111.296 95.237 110.663 94.6016C109.389 93.3198 108.674 91.5859 108.674 89.7786C108.674 87.9713 109.389 86.2375 110.663 84.9557C111.296 84.3202 112.048 83.816 112.876 83.472C113.704 83.1279 114.591 82.9508 115.488 82.9508C116.385 82.9508 117.272 83.1279 118.1 83.472C118.928 83.816 119.68 84.3202 120.313 84.9557C120.726 85.3677 121.084 85.8316 121.378 86.3358C122.138 87.638 122.445 89.1549 122.253 90.65C122.06 92.1452 121.378 93.5345 120.313 94.6016Z" stroke="#DDDDDD" stroke-width="0.6697" stroke-linecap="round" stroke-linejoin="round"/>
<path d="M150.25 152.199C149.508 152.752 148.732 153.258 147.926 153.713" stroke="#EDEDED" stroke-width="0.6697" stroke-linecap="round" stroke-linejoin="round"/>
<path d="M143.956 154.83C142.025 152.865 137.322 153.742 136.578 158.267C135.834 162.793 139.804 166.744 145.636 165.645" stroke="#EDEDED" stroke-width="0.6697" stroke-linecap="round" stroke-linejoin="round"/>
<path d="M113.09 136.693C113.83 141.932 113.534 151.03 113.49 151.607" stroke="#EDEDED" stroke-width="0.6697" stroke-linecap="round" stroke-linejoin="round"/>
<path d="M122.84 159.152C119.954 156.133 118.578 154.179 118.578 141.355" stroke="#EDEDED" stroke-width="0.6697" stroke-linecap="round" stroke-linejoin="round"/>
<path d="M70.152 138.31L111.485 154.501L131.498 194.409L87.0129 174.792L67.8802 139.283L70.152 138.31Z" fill="#EDEDED"/>
<path d="M67.8802 139.283L109.213 155.474L129.226 195.382L84.7448 175.765L67.8802 139.283Z" fill="#F9F9F9" stroke="#DDDDDD" stroke-width="0.333" stroke-linecap="round" stroke-linejoin="round"/>
</svg>
